<svg width="400" height="400" viewBox="0 0 400 400" fill="none" xmlns="http://www.w3.org/2000/svg">
<path d="M350 10C372.091 10 390 27.9086 390 50V250H400V50C400 22.6016 377.963 0.350039 350.646 0.00390625L350 0L150 0.00390625V10H350Z" fill="#F4E7E8"/>
<path d="M10 150V350C10 372.091 27.9086 390 50 390H250V400H50L49.3535 399.996C22.0372 399.65 0 377.398 0 350V150H10Z" fill="#F4E7E8"/>
<path d="M150.002 0V75C150.002 102.614 172.387 125 200.001 125H225.001C252.615 125 275.001 147.386 275.001 175V200C275.001 227.614 297.386 250 325 250H400V400H250L250.001 325C250.001 297.386 227.615 275 200.001 275H175.001C147.387 275 125.002 252.614 125.002 225V200C125.002 172.386 102.616 150 75.002 150H0.00250244V50C0.00250244 36.1929 5.5978 23.6918 14.646 14.6436C23.6941 5.59533 36.1952 0 50.0022 0H150.002Z" fill="#BD0558"/>
<path d="M120.004 99.9501V49.9501C120.003 38.9066 111.05 29.951 100.004 29.9501H50.0046C38.9599 29.9508 30.0054 38.9054 30.0047 49.9501V101.879L29.2918 103.666L17.9491 131.996L46.2937 120.668L48.0808 119.95H99.9994V129.95H50.0046L0 149.95L20.0048 99.9501V49.9501C20.0054 33.3826 33.4371 19.9508 50.0046 19.9501H100.004C116.571 19.9514 130.003 33.383 130.004 49.9501V99.9501C130.004 116.519 116.568 129.95 99.9994 129.95V119.95C111.047 119.95 120.004 110.994 120.004 99.9501Z" fill="#F4E7E8"/>
<path d="M280 350V300C280 289.302 288.403 280.562 298.97 280.024L300 280H350C361.045 280 369.999 288.954 369.999 300V351.924L382.055 382.046L353.715 370.713L351.923 370H300.005V380H350L400.004 400L379.999 350V300C379.999 283.431 366.568 270 350 270H300C283.433 270.001 270 283.432 270 300V350C270 366.569 283.436 380 300.005 380V370C288.957 370 280 361.044 280 350Z" fill="#F0E7F4"/>
</svg>
